<svg width="30" height="30" viewBox="0 0 30 30" fill="none" xmlns="http://www.w3.org/2000/svg">
<g id="bi:house-check" clip-path="url(#clip0_421_37)">
<g id="Group">
<path id="Vector" d="M13.6743 2.8125C14.026 2.46099 14.5028 2.26353 15 2.26353C15.4971 2.26353 15.974 2.46099 16.3256 2.8125L20.625 7.11188V4.6875C20.625 4.43886 20.7237 4.2004 20.8995 4.02459C21.0754 3.84877 21.3138 3.75 21.5625 3.75H23.4375C23.6861 3.75 23.9246 3.84877 24.1004 4.02459C24.2762 4.2004 24.375 4.43886 24.375 4.6875V10.8619L28.7887 15.2738C28.8759 15.3609 28.945 15.4644 28.9922 15.5783C29.0394 15.6922 29.0636 15.8142 29.0636 15.9375C29.0636 16.0608 29.0394 16.1828 28.9922 16.2967C28.945 16.4106 28.8759 16.5141 28.7887 16.6013C28.7015 16.6884 28.5981 16.7576 28.4842 16.8047C28.3703 16.8519 28.2482 16.8762 28.125 16.8762C28.0017 16.8762 27.8796 16.8519 27.7657 16.8047C27.6519 16.7576 27.5484 16.6884 27.4612 16.6013L15 4.13813L5.62496 13.5131V25.3125C5.62496 25.5611 5.72374 25.7996 5.89955 25.9754C6.07537 26.1512 6.31382 26.25 6.56246 26.25H14.0625C14.3111 26.25 14.5496 26.3488 14.7254 26.5246C14.9012 26.7004 15 26.9389 15 27.1875C15 27.4361 14.9012 27.6746 14.7254 27.8504C14.5496 28.0262 14.3111 28.125 14.0625 28.125H6.56246C5.81654 28.125 5.10117 27.8287 4.57373 27.3012C4.04628 26.7738 3.74996 26.0584 3.74996 25.3125V15.3881L2.53871 16.6013C2.45155 16.6884 2.34807 16.7576 2.23418 16.8047C2.1203 16.8519 1.99823 16.8762 1.87496 16.8762C1.75169 16.8762 1.62963 16.8519 1.51574 16.8047C1.40186 16.7576 1.29838 16.6884 1.21121 16.6013C1.12405 16.5141 1.05491 16.4106 1.00773 16.2967C0.960559 16.1828 0.936279 16.0608 0.936279 15.9375C0.936279 15.8142 0.960559 15.6922 1.00773 15.5783C1.05491 15.4644 1.12405 15.3609 1.21121 15.2738L13.6743 2.8125Z" fill="#274C77"/>
<path id="Vector_2" d="M23.4375 30C25.178 30 26.8472 29.3086 28.0779 28.0779C29.3086 26.8472 30 25.178 30 23.4375C30 21.697 29.3086 20.0278 28.0779 18.7971C26.8472 17.5664 25.178 16.875 23.4375 16.875C21.697 16.875 20.0278 17.5664 18.7971 18.7971C17.5664 20.0278 16.875 21.697 16.875 23.4375C16.875 25.178 17.5664 26.8472 18.7971 28.0779C20.0278 29.3086 21.697 30 23.4375 30ZM26.5856 21.5756L24.0825 25.7494C23.9725 25.9327 23.8221 26.0886 23.6428 26.2051C23.4635 26.3216 23.26 26.3957 23.0478 26.4218C22.8355 26.4478 22.6202 26.4251 22.418 26.3554C22.2159 26.2856 22.0323 26.1707 21.8813 26.0194L20.43 24.57C20.2542 24.394 20.1556 24.1553 20.1557 23.9065C20.1559 23.6577 20.2549 23.4192 20.4309 23.2434C20.607 23.0676 20.8456 22.969 21.0944 22.9692C21.3432 22.9693 21.5817 23.0683 21.7575 23.2444L22.7831 24.27L24.9769 20.6119C25.0402 20.5062 25.1236 20.4141 25.2225 20.3407C25.3214 20.2674 25.4338 20.2142 25.5532 20.1842C25.6726 20.1543 25.7968 20.1482 25.9186 20.1662C26.0404 20.1842 26.1575 20.2261 26.2631 20.2894C26.3688 20.3527 26.4609 20.4361 26.5343 20.535C26.6076 20.6339 26.6608 20.7463 26.6908 20.8657C26.7207 20.9851 26.7268 21.1093 26.7088 21.2311C26.6908 21.3529 26.6489 21.47 26.5856 21.5756Z" fill="#274C77"/>
</g>
</g>
<defs>
<clipPath id="clip0_421_37">
<rect width="30" height="30" fill="white"/>
</clipPath>
</defs>
</svg>
