<svg width="30" height="30" viewBox="0 0 30 30" fill="none" xmlns="http://www.w3.org/2000/svg">
<g id="ei:plus">
<path id="Vector" d="M15 25.2C9.36005 25.2 4.80005 20.64 4.80005 15C4.80005 9.36005 9.36005 4.80005 15 4.80005C20.64 4.80005 25.2 9.36005 25.2 15C25.2 20.64 20.64 25.2 15 25.2ZM15 6.00005C10.02 6.00005 6.00005 10.02 6.00005 15C6.00005 19.98 10.02 24 15 24C19.98 24 24 19.98 24 15C24 10.02 19.98 6.00005 15 6.00005Z" fill="white"/>
<path id="Vector_2" d="M9.6001 14.3999H20.4001V15.5999H9.6001V14.3999Z" fill="white"/>
<path id="Vector_3" d="M14.3999 9.6001H15.5999V20.4001H14.3999V9.6001Z" fill="white"/>
</g>
</svg>
