<svg width="880" height="508" viewBox="0 0 880 508" fill="none"
    xmlns="http://www.w3.org/2000/svg">
    <g clip-path="url(#clip0_15_2)">
        <path d="M284.207 495.287C422.258 495.287 534.171 384.413 534.171 247.643C534.171 110.874 422.258 0 284.207 0C146.155 0 34.2424 110.874 34.2424 247.643C34.2424 384.413 146.155 495.287 284.207 495.287Z" fill="#F2F2F2"/>
        <path d="M880 439.305C879.999 439.907 879.95 440.508 879.855 441.103C873.742 478.215 679.149 508 440 508C200.851 508 6.25759 478.215 0.145524 441.103C0.049977 440.508 0.00132308 439.907 0 439.305C0 439.136 -2.87326e-06 438.957 0.0171177 438.788C0.0171177 438.694 0.0256799 438.61 0.0256799 438.516C0.0327507 438.483 0.0356277 438.449 0.034242 438.415C0.0684833 438.033 0.119845 437.668 0.188328 437.295C2.97899 422.123 37.2973 408.181 93.2732 397.011C139.054 387.877 199.327 380.592 268.7 376.013C321.346 372.536 379.23 370.61 440 370.61C488.896 370.61 535.927 371.857 579.858 374.147H579.875C589.069 374.63 598.126 375.159 607.046 375.733C668.107 379.651 722.293 385.647 765.951 393.152C792.805 397.774 815.686 402.973 833.74 408.605H833.749C861.535 417.28 877.92 427.008 879.812 437.295C879.88 437.668 879.931 438.033 879.966 438.415C879.964 438.449 879.967 438.483 879.974 438.516C879.974 438.61 879.983 438.695 879.983 438.788C880 438.957 880 439.136 880 439.305Z" fill="#3F3D56"/>
        <path opacity="0.1" d="M428.872 505.456C506.879 505.456 570.117 496.343 570.117 485.102C570.117 473.861 506.879 464.748 428.872 464.748C350.864 464.748 287.626 473.861 287.626 485.102C287.626 496.343 350.864 505.456 428.872 505.456Z" fill="black"/>
        <path opacity="0.1" d="M833.74 408.605C828.801 410.004 823.237 411.301 817.133 412.489C792 417.391 757.707 420.401 719.948 420.401C677.763 420.401 639.952 416.644 614.331 410.699C593.067 405.763 580.192 399.343 580.192 392.296C580.192 386.105 590.156 380.372 607.046 375.733C668.107 379.651 722.293 385.647 765.951 393.152C792.805 397.774 815.686 402.973 833.74 408.605Z" fill="black"/>
        <path opacity="0.1" d="M455.409 399.233C455.409 412.065 374.154 422.471 273.93 422.471C173.706 422.471 92.4514 412.065 92.4514 399.233C92.473 398.424 92.7616 397.643 93.2732 397.011C139.054 387.877 199.327 380.592 268.7 376.013C270.437 376.004 272.181 376.001 273.93 376.004C374.154 376.004 455.409 386.402 455.409 399.233Z" fill="black"/>
        <path d="M392.197 284.087H356.513V398.226H392.197V284.087Z" fill="#274C77"/>
        <path d="M274.949 230.553H239.266V398.226H274.949V230.553Z" fill="#274C77"/>
        <path d="M158.722 230.553H123.038V398.226H158.722V230.553Z" fill="#274C77"/>
        <path d="M216.836 230.553H181.152V344.691H216.836V230.553Z" fill="#274C77"/>
        <path d="M333.063 230.553H297.379V263.885H333.063V230.553Z" fill="#274C77"/>
        <path d="M333.063 284.087H297.379V398.226H333.063V284.087Z" fill="#8A8B8C"/>
        <path d="M450.311 230.553H356.513V263.885H450.311V230.553Z" fill="#274C77"/>
        <path d="M697.718 220.526C722.114 220.526 742.88 228.962 760.015 245.833C768.085 253.765 774.444 263.24 778.704 273.682C787.194 295.045 787.223 318.797 778.785 340.18C774.59 350.501 768.249 359.833 760.176 367.568C751.875 375.76 742.032 382.261 731.207 386.701C720.599 391.087 709.218 393.342 697.724 393.336C686.36 393.37 675.105 391.139 664.628 386.777C643.287 377.776 626.291 360.939 617.205 339.796C608.457 318.712 608.484 295.055 617.281 273.99C621.737 263.384 628.275 253.759 636.515 245.676C653.127 228.913 673.528 220.53 697.718 220.526ZM698.035 236.112C678.1 236.112 661.331 243.004 647.727 256.787C641.02 263.465 635.655 271.345 631.92 280.009C628.27 288.498 626.389 297.629 626.389 306.855C626.389 316.082 628.27 325.213 631.92 333.702C639.442 351.012 653.419 364.778 670.935 372.128C679.543 375.655 688.768 377.463 698.083 377.45C707.398 377.438 716.618 375.603 725.216 372.053C734.06 368.402 742.12 363.113 748.963 356.47C762.563 343.304 769.363 326.793 769.361 306.938C769.411 297.629 767.611 288.402 764.065 279.782C760.523 271.224 755.283 263.458 748.655 256.944C734.63 243.057 717.756 236.113 698.035 236.112ZM696.942 292.586L685.257 298.605C684.315 296.385 682.713 294.502 680.665 293.205C679.141 292.264 677.395 291.733 675.601 291.663C667.817 291.663 663.923 296.755 663.92 306.938C663.92 311.566 664.905 315.268 666.877 318.044C668.85 320.822 671.758 322.212 675.601 322.213C680.69 322.213 684.273 319.744 686.35 314.806L697.094 320.207C694.901 324.331 691.605 327.78 687.568 330.174C683.53 332.569 678.906 333.819 674.2 333.786C666.413 333.786 660.131 331.42 655.353 326.687C650.578 321.956 648.191 315.374 648.191 306.941C648.191 298.71 650.605 292.179 655.432 287.345C660.259 282.512 666.36 280.094 673.734 280.093C684.535 280.087 692.271 284.252 696.942 292.586ZM747.246 292.586L735.72 298.605C734.777 296.385 733.174 294.501 731.125 293.205C729.551 292.249 727.753 291.718 725.908 291.663C718.121 291.663 714.227 296.755 714.224 306.938C714.224 311.566 715.211 315.268 717.184 318.044C719.154 320.822 722.062 322.212 725.908 322.213C730.991 322.213 734.572 319.744 736.649 314.806L747.551 320.207C745.277 324.31 741.947 327.744 737.9 330.159C733.912 332.561 729.329 333.816 724.663 333.786C716.77 333.786 710.464 331.42 705.745 326.687C701.014 321.956 698.65 315.374 698.653 306.941C698.653 298.71 701.068 292.179 705.898 287.345C710.722 282.512 716.82 280.094 724.194 280.093C734.992 280.087 742.676 284.252 747.246 292.586Z" fill="#274C77"/>
        <path opacity="0.1" d="M644.948 432.807C644.948 474.141 586.794 461.356 515.591 461.356C444.387 461.356 387.098 474.141 387.098 432.807C387.098 391.474 445.244 382.484 516.447 382.484C587.65 382.484 644.948 391.474 644.948 432.807Z" fill="black"/>
        <path d="M644.948 422.63C644.948 463.964 586.794 451.179 515.591 451.179C444.387 451.179 387.098 463.964 387.098 422.63C387.098 381.297 445.244 372.307 516.447 372.307C587.65 372.307 644.948 381.297 644.948 422.63Z" fill="#3F3D56"/>
        <path d="M633.071 348.428L636.01 360.44C636.043 360.574 636.037 360.714 635.995 360.846L622.662 402.125C622.609 402.288 622.501 402.429 622.357 402.523C622.212 402.617 622.039 402.66 621.866 402.643C621.694 402.626 621.533 402.551 621.409 402.431C621.286 402.31 621.208 402.151 621.188 401.981L619.344 385.9C619.332 385.793 619.343 385.685 619.376 385.583L631.615 348.373C631.666 348.217 631.766 348.083 631.902 347.99C632.037 347.896 632.199 347.849 632.364 347.855C632.529 347.862 632.687 347.921 632.814 348.024C632.942 348.128 633.032 348.27 633.071 348.428Z" fill="#2F2E41"/>
        <path d="M631.989 349.443L634.703 359.749L622.943 397.388L620.23 385.738L631.989 349.443Z" fill="#F2F2F2"/>
        <path d="M572.74 405.454C573.192 406.798 619.778 405.006 620.23 404.558C620.624 403.997 620.958 403.396 621.225 402.765C621.65 401.869 622.039 400.973 622.039 400.973L620.23 386.464L574.096 384.842C574.096 384.842 572.943 397.137 572.708 402.765C572.628 403.66 572.638 404.561 572.74 405.454Z" fill="#2F2E41"/>
        <path opacity="0.1" d="M614.35 388.427L615.254 400.973H594.901V388.427H614.35Z" fill="black"/>
        <path opacity="0.1" d="M588.117 392.459L588.239 392.435L587.665 397.836H576.358V392.459H588.117Z" fill="black"/>
        <path opacity="0.1" d="M572.74 405.454C573.192 406.798 619.778 405.006 620.23 404.558C620.624 403.997 620.958 403.396 621.225 402.765H572.708C572.628 403.66 572.638 404.561 572.74 405.454Z" fill="black"/>
        <path d="M500.826 358.405H513.49L544.698 346.306C544.698 346.306 566.86 337.344 565.051 354.372C563.242 371.399 560.076 394.252 560.076 394.252C560.076 394.252 550.125 389.771 544.698 391.115C539.27 392.459 542.889 363.782 542.889 363.782C542.889 363.782 498.564 384.842 494.494 382.153C490.423 379.465 489.518 360.645 489.518 360.645L500.826 358.405Z" fill="#2F2E41"/>
        <path opacity="0.1" d="M500.826 358.405H513.49L544.698 346.306C544.698 346.306 566.86 337.344 565.051 354.372C563.242 371.399 560.076 394.252 560.076 394.252C560.076 394.252 550.125 389.771 544.698 391.115C539.27 392.459 542.889 363.782 542.889 363.782C542.889 363.782 498.564 384.842 494.494 382.153C490.423 379.465 489.518 360.645 489.518 360.645L500.826 358.405Z" fill="black"/>
        <path d="M520.778 319.113L536.104 340.929L571.835 370.503C571.835 370.503 604.852 378.12 600.329 383.498C595.806 388.875 568.217 378.121 568.217 378.121C568.217 378.121 527.058 348.547 525.702 346.306C524.345 344.066 509.419 323.005 509.419 323.005L520.778 319.113Z" fill="#A0616A"/>
        <path opacity="0.1" d="M520.778 319.113L536.104 340.929L571.835 370.503C571.835 370.503 604.852 378.12 600.329 383.498C595.806 388.875 568.217 378.121 568.217 378.121C568.217 378.121 527.058 348.547 525.702 346.306C524.345 344.066 509.419 323.005 509.419 323.005L520.778 319.113Z" fill="black"/>
        <path d="M518.465 295.224C529.706 295.224 538.818 286.196 538.818 275.06C538.818 263.924 529.706 254.896 518.465 254.896C507.224 254.896 498.112 263.924 498.112 275.06C498.112 286.196 507.224 295.224 518.465 295.224Z" fill="#A0616A"/>
        <path d="M517.108 292.984C517.108 292.984 510.324 304.634 508.967 310.907C507.61 317.18 488.614 298.361 488.614 298.361L486.126 291.863C486.126 291.863 503.992 283.574 502.635 276.852C501.278 270.131 517.108 292.984 517.108 292.984Z" fill="#A0616A"/>
        <path d="M511.681 301.497L521.631 320.765C521.631 320.765 519.369 330.175 515.751 331.071C512.133 331.967 496.755 319.421 496.755 319.421L511.681 301.497Z" fill="#D0CDE1"/>
        <path d="M520.726 327.935L539.27 352.131L583.594 384.842C583.594 384.842 615.707 391.563 608.47 396.492C601.234 401.421 580.428 392.011 580.428 392.011C580.428 392.011 535.652 368.263 526.154 358.405C516.656 348.547 499.017 331.967 499.017 331.967L520.726 327.935Z" fill="#A0616A"/>
        <path d="M495.851 365.574L501.278 374.088L533.67 363.992C537.179 362.868 540.892 362.513 544.553 362.95C548.214 363.388 551.736 364.608 554.874 366.526C560.528 370.055 564.146 375.656 556.005 383.946C539.722 400.525 528.868 391.563 528.868 391.563C528.868 391.563 474.141 417.104 465.095 404.558C456.049 392.011 455.597 385.738 455.597 385.738C455.597 385.738 490.423 364.23 495.851 365.574Z" fill="#2F2E41"/>
        <path d="M563.694 395.148C563.694 395.148 578.167 404.558 560.98 409.039C543.793 413.52 531.129 407.246 531.129 407.246C531.129 407.246 516.203 407.246 516.203 399.629C516.203 392.011 521.179 391.115 521.179 391.115L536.556 393.356C536.556 393.356 555.1 388.427 563.694 395.148Z" fill="#D0CDE1"/>
        <path d="M535.161 269.988C536.499 270.701 537.936 271.211 539.426 271.501C540.175 271.634 540.947 271.546 541.646 271.25C542.345 270.953 542.941 270.46 543.36 269.831C543.693 269.086 543.846 268.275 543.807 267.461C543.862 265 543.682 262.34 542.108 260.436C541.106 259.224 539.644 258.46 538.607 257.278C537.911 256.392 537.317 255.431 536.838 254.413C534.821 250.661 531.836 247.055 527.687 245.974C525.933 245.6 524.136 245.464 522.345 245.569L511.896 245.715C510.204 245.661 508.512 245.841 506.869 246.251C503.506 247.259 501.058 250.06 498.815 252.74C497.074 254.694 495.527 256.809 494.195 259.056C492.39 262.392 491.477 266.131 491.544 269.916C491.53 270.886 491.656 271.854 491.919 272.789C492.227 273.646 492.608 274.476 493.059 275.27C495.019 279.083 496.182 283.845 493.975 287.524C497.809 285.972 501.602 283.938 504.13 280.689C505.262 279.236 506.149 277.535 507.657 276.468C509.164 275.402 511.621 275.309 512.588 276.875C512.92 277.508 513.092 278.212 513.087 278.926C513.056 280.105 513.25 281.279 513.658 282.387C513.877 282.935 514.278 283.393 514.795 283.685C515.312 283.978 515.914 284.087 516.502 283.994C518.471 283.445 518.283 280.451 519.799 279.09C520.951 278.057 522.728 278.255 524.208 277.786C525.056 277.467 525.828 276.976 526.475 276.345C527.121 275.714 527.628 274.957 527.963 274.122C528.524 272.877 528.515 269.619 529.576 268.945C530.905 268.099 533.929 269.443 535.161 269.988Z" fill="#2F2E41"/>
        <path d="M484.511 289.738C485.426 289.496 486.39 289.498 487.305 289.745C490.208 290.517 496.716 292.561 498.112 295.672C499.921 299.705 506.253 305.978 506.253 305.978C506.253 305.978 514.847 314.492 513.037 320.317C511.228 326.142 504.444 332.864 504.444 332.864C504.444 332.864 506.253 360.645 497.207 367.815C488.162 374.984 484.543 370.055 484.543 376.776C484.543 383.498 456.501 404.558 451.074 391.563C451.074 391.563 453.788 367.366 452.883 358.853C451.991 350.462 453.297 298.11 484.511 289.738Z" fill="#D0CDE1"/>
        <path d="M499.017 301.049C499.017 301.049 526.606 321.213 521.631 329.727C521.631 329.727 504.896 337.792 501.278 337.344C497.66 336.896 483.639 321.213 480.02 319.869C476.402 318.525 474.593 294.328 499.017 301.049Z" fill="#D0CDE1"/>
        <path d="M422.717 319.118C418.426 320.554 414.539 323.912 413.66 328.314C413.253 330.354 413.503 332.475 413.16 334.527C412.365 339.286 408.594 342.921 405.116 346.297C401.638 349.673 398.047 353.596 397.793 358.413C397.515 363.688 401.376 368.63 400.708 373.87C399.932 379.959 393.441 383.904 391.836 389.831C390.765 393.789 392.078 398.053 394.238 401.548C398.354 408.207 405.39 412.728 412.883 415.152C420.376 417.575 428.356 418.085 436.237 418.167C445.834 418.267 456.254 417.45 463.464 411.175C467.583 407.559 470.17 402.534 470.706 397.107C471.391 389.839 468.328 382.328 470.441 375.334C471.77 370.933 475.104 366.913 474.606 362.345C474.12 357.879 470.182 354.713 467.481 351.105C464.959 347.736 463.429 343.758 461.929 339.836L456.797 326.416C455.789 323.778 454.681 321.003 452.433 319.272C448.224 316.03 441.456 316.667 436.535 317.335C431.969 317.956 427.108 317.649 422.717 319.118Z" fill="#2F2E41"/>
        <path d="M424.324 358.21C424.324 358.21 426.599 365.535 409.538 373.987C392.476 382.438 411.244 391.453 411.244 391.453L431.149 395.961C431.149 395.961 451.623 393.144 453.898 389.763C456.173 386.382 460.154 375.114 459.016 373.423C458.165 372.22 457.214 371.089 456.173 370.043C456.173 370.043 442.523 367.789 443.092 361.591C443.661 355.393 424.324 358.21 424.324 358.21Z" fill="#FFB9B9"/>
        <path opacity="0.1" d="M424.324 358.21C424.324 358.21 426.599 365.535 409.538 373.987C392.476 382.438 411.244 391.453 411.244 391.453L431.149 395.961C431.149 395.961 451.623 393.144 453.898 389.763C456.173 386.382 460.154 375.114 459.016 373.423C458.165 372.22 457.214 371.089 456.173 370.043C456.173 370.043 442.523 367.789 443.092 361.591C443.661 355.393 424.324 358.21 424.324 358.21Z" fill="black"/>
        <path d="M435.414 369.761C445.466 369.761 453.614 361.689 453.614 351.731C453.614 341.773 445.466 333.701 435.414 333.701C425.363 333.701 417.215 341.773 417.215 351.731C417.215 361.689 425.363 369.761 435.414 369.761Z" fill="#FFB9B9"/>
        <path d="M433.424 389.763C433.424 389.763 411.506 388.175 411.091 373.193C411.091 373.193 403.282 372.296 401.007 374.55C398.732 376.804 391.339 378.494 391.339 384.129C391.339 389.763 403.85 406.666 403.85 406.666C403.85 406.666 410.675 429.204 407.831 433.148C404.988 437.092 404.419 447.234 404.419 447.234C404.419 447.234 432.855 444.98 437.405 447.234C441.955 449.488 460.154 449.488 461.291 447.234C462.429 444.98 460.154 416.808 460.154 416.808C460.154 416.808 465.272 410.047 464.135 402.159L477.784 386.382C477.784 386.382 472.666 371.17 464.704 371.17C464.704 371.17 453.898 368.352 453.614 369.761C453.329 371.17 459.016 386.946 433.424 389.763Z" fill="#FF6584"/>
        <path d="M382.239 439.346C382.239 439.346 387.358 447.234 400.438 448.924C413.519 450.615 415.794 446.107 414.656 444.98C413.519 443.853 399.869 438.782 399.869 438.782L391.907 432.585L382.239 439.346Z" fill="#FFB9B9"/>
        <path d="M475.509 432.585L460.723 441.036C460.723 441.036 441.386 439.909 448.779 445.544C456.173 451.178 469.822 448.924 469.822 448.924L482.903 442.727L475.509 432.585Z" fill="#FFB9B9"/>
        <path d="M401.576 447.234C401.576 447.234 387.926 480.477 404.419 485.548C420.912 490.619 466.41 489.492 476.647 482.731C486.884 475.97 489.727 466.955 488.021 464.137C486.315 461.32 474.941 453.432 466.979 452.869C459.016 452.305 401.576 447.234 401.576 447.234Z" fill="#2F2E41"/>
        <path opacity="0.05" d="M401.576 447.234C401.576 447.234 387.926 480.477 404.419 485.548C420.912 490.619 466.41 489.492 476.647 482.731C486.884 475.97 489.727 466.955 488.021 464.137C486.315 461.32 474.941 453.432 466.979 452.869C459.016 452.305 401.576 447.234 401.576 447.234Z" fill="black"/>
        <path d="M466.004 449.299C466.004 449.299 514.182 432.021 513.614 452.869C513.045 473.716 482.903 479.35 482.903 479.35L473.803 480.477L423.756 482.168C423.756 482.168 425.462 473.152 421.481 472.026C421.481 472.026 434.561 468.645 435.13 468.081C435.699 467.518 468.116 456.249 470.391 455.686C472.666 455.122 479.49 450.615 484.609 451.178C484.609 451.178 490.296 446.671 496.552 447.798L478.922 448.924L466.004 449.299Z" fill="#2F2E41"/>
        <path opacity="0.1" d="M466.004 449.299C466.004 449.299 514.182 432.021 513.614 452.869C513.045 473.716 482.903 479.35 482.903 479.35L473.803 480.477L423.756 482.168C423.756 482.168 425.462 473.152 421.481 472.026C421.481 472.026 434.561 468.645 435.13 468.081C435.699 467.518 468.116 456.249 470.391 455.686C472.666 455.122 479.49 450.615 484.609 451.178C484.609 451.178 490.296 446.671 496.552 447.798L478.922 448.924L466.004 449.299Z" fill="black"/>
        <path d="M457.492 452.097L463.567 465.828L500.533 452.868L503.377 445.544L493.708 443.853L474.271 447.234L465.841 449.488L457.492 452.097Z" fill="#2F2E41"/>
        <path opacity="0.1" d="M457.492 452.097L463.567 465.828L500.533 452.868L503.377 445.544L493.708 443.853L474.271 447.234L465.841 449.488L457.492 452.097Z" fill="black"/>
        <path d="M378.827 468.645C378.827 468.645 389.632 482.167 402.144 485.548C414.656 488.929 421.481 484.421 421.481 484.421L417.5 468.645L415.794 458.503L408.4 453.432L393.613 446.671L375.983 441.036C375.983 441.036 368.59 439.909 368.59 441.036C368.59 442.163 375.414 459.066 375.414 459.066L378.827 468.645Z" fill="#2F2E41"/>
        <path d="M391.907 475.97C391.907 475.97 394.182 492.309 397.026 493.436C399.869 494.563 408.4 492.309 410.675 491.183C412.95 490.056 420.683 484.857 420.683 484.857C420.683 484.857 393.613 474.843 391.907 475.97Z" fill="#F2F2F2"/>
        <path d="M443.661 477.66L454.467 479.351L453.329 492.309L438.257 488.683L443.661 477.66Z" fill="#FFB9B9"/>
        <path d="M450.431 481.267C450.431 481.267 445.367 487.239 450.486 490.619L453.898 493.436C453.898 493.436 465.272 495.69 466.41 496.817C467.547 497.944 472.097 495.127 472.097 495.127C472.097 495.127 472.666 478.223 472.097 477.097C471.528 475.97 464.704 474.843 464.135 475.97C463.566 477.097 456.742 478.787 452.76 477.66L450.431 481.267Z" fill="#F2F2F2"/>
        <path d="M404.988 451.178C404.988 451.178 365.177 428.077 358.921 436.529C352.665 444.98 345.841 456.813 364.04 465.828C382.239 474.843 439.111 493.436 439.111 493.436C439.111 493.436 447.642 480.477 447.642 477.097C447.642 477.097 417.5 463.574 412.381 462.447C407.263 461.32 386.789 448.361 383.945 447.234C381.102 446.107 377.121 442.727 377.121 442.727L404.988 451.178Z" fill="#2F2E41"/>
        <path d="M393.613 381.311L391.339 383.002C391.339 383.002 386.22 395.961 385.651 403.286C385.083 410.61 378.258 433.148 378.827 435.965C379.395 438.783 379.964 441.036 383.376 443.853C383.376 443.853 387.926 433.712 395.888 435.402L405.557 400.468L393.613 381.311Z" fill="#FF6584"/>
        <path d="M473.234 381.311L477.784 386.382C477.784 386.382 480.628 393.144 480.628 394.834C480.628 396.524 486.315 421.316 486.884 422.443C487.453 423.57 489.727 437.656 486.884 441.036C484.04 444.417 478.922 446.671 478.922 446.671C478.922 446.671 482.334 434.838 471.528 434.275L472.666 429.767L462.429 395.961L473.234 381.311Z" fill="#FF6584"/>
        <path d="M394.751 420.104V449.782C394.751 451.656 395.495 453.455 396.823 454.79C398.15 456.125 399.955 456.889 401.846 456.917L464.495 457.836C466.376 457.864 468.192 457.162 469.557 455.88C470.922 454.598 471.726 452.838 471.799 450.976L472.951 421.294C472.988 420.343 472.832 419.395 472.494 418.504C472.155 417.614 471.641 416.8 470.98 416.11C470.319 415.419 469.525 414.867 468.646 414.485C467.766 414.103 466.819 413.899 465.858 413.885L402.057 412.969C401.103 412.955 400.155 413.13 399.269 413.482C398.384 413.835 397.577 414.358 396.897 415.022C396.218 415.686 395.678 416.477 395.309 417.349C394.941 418.222 394.751 419.158 394.751 420.104Z" fill="#3F3D56"/>
        <path d="M436.482 351.153C447.301 351.153 456.071 346.474 456.071 340.702C456.071 334.931 447.301 330.252 436.482 330.252C425.663 330.252 416.892 334.931 416.892 340.702C416.892 346.474 425.663 351.153 436.482 351.153Z" fill="#2F2E41"/>
        <path d="M433.14 440.191C435.652 440.191 437.689 438.173 437.689 435.684C437.689 433.194 435.652 431.176 433.14 431.176C430.627 431.176 428.59 433.194 428.59 435.684C428.59 438.173 430.627 440.191 433.14 440.191Z" fill="#F2F2F2"/>
    </g>
    <defs>
        <clipPath id="clip0_15_2">
            <rect width="880" height="508" fill="white"/>
        </clipPath>
    </defs>
</svg>
