<svg width="94" height="90" viewBox="0 0 94 90" fill="none" xmlns="http://www.w3.org/2000/svg">
<g id="iconoir:trash-solid">
<g id="Group">
<path id="Vector" d="M78.3333 33.75L70.5195 76.2975C70.2008 78.0351 69.2524 79.6095 67.8412 80.7439C66.43 81.8783 64.6463 82.5001 62.8037 82.5H31.1962C29.3536 82.5001 27.5699 81.8783 26.1587 80.7439C24.7475 79.6095 23.7992 78.0351 23.4804 76.2975L15.6666 33.75" fill="#5863F8"/>
<path id="Vector_2" d="M82.25 22.5H60.2188M60.2188 22.5V15C60.2188 13.0109 59.3935 11.1032 57.9244 9.6967C56.4554 8.29018 54.4629 7.5 52.3854 7.5H41.6146C39.5371 7.5 37.5446 8.29018 36.0756 9.6967C34.6065 11.1032 33.7813 13.0109 33.7813 15V22.5M60.2188 22.5H33.7813M11.75 22.5H33.7813M78.3333 33.75L70.5196 76.2975C70.2008 78.0351 69.2525 79.6095 67.8413 80.7439C66.4301 81.8783 64.6464 82.5001 62.8038 82.5H31.1963C29.3536 82.5001 27.5699 81.8783 26.1587 80.7439C24.7475 79.6095 23.7992 78.0351 23.4804 76.2975L15.6667 33.75H78.3333Z" stroke="#5863F8" stroke-width="1.5" stroke-linecap="round" stroke-linejoin="round"/>
</g>
</g>
</svg>
