<svg width="31" height="33" viewBox="0 0 31 33" fill="none"
    xmlns="http://www.w3.org/2000/svg">
    <path d="M18.0833 11V8.25C18.0833 7.52065 17.8112 6.82118 17.3267 6.30546C16.8422 5.78973 16.1851 5.5 15.5 5.5H6.45833C5.77319 5.5 5.11611 5.78973 4.63164 6.30546C4.14717 6.82118 3.875 7.52065 3.875 8.25V24.75C3.875 25.4793 4.14717 26.1788 4.63164 26.6945C5.11611 27.2103 5.77319 27.5 6.45833 27.5H15.5C16.1851 27.5 16.8422 27.2103 17.3267 26.6945C17.8112 26.1788 18.0833 25.4793 18.0833 24.75V22" stroke="white" stroke-width="3.33333" stroke-linecap="round" stroke-linejoin="round"/>
    <path d="M11.625 16.5H27.125M27.125 16.5L23.25 12.375M27.125 16.5L23.25 20.625" stroke="white" stroke-width="3.33333" stroke-linecap="round" stroke-linejoin="round"/>
</svg>
