<svg width="40" height="40" viewBox="0 0 40 40" fill="none" xmlns="http://www.w3.org/2000/svg">
<path d="M17.5 17.5L22.5 22.5M22.5 17.5L17.5 22.5" stroke="#344054" stroke-linecap="round" stroke-linejoin="round"/>
<path d="M11.6664 5H30C30.442 5 30.8658 5.17557 31.1783 5.48808C31.4909 5.80059 31.6664 6.22444 31.6664 6.6664V33.3336C31.6664 33.7756 31.4909 34.1994 31.1783 34.5119C30.8658 34.8244 30.442 35 30 35H10C9.55806 35 9.13421 34.8244 8.8217 34.5119C8.50919 34.1994 8.33362 33.7756 8.33362 33.3336V8.3336M11.6664 5L8.33362 8.3336M11.6664 5V8.3336H8.33362" stroke="#306CFE" stroke-linecap="round" stroke-linejoin="round"/>
</svg>
