<svg width="37" height="37" viewBox="0 0 37 37" fill="none" xmlns="http://www.w3.org/2000/svg">
<g id="mdi:home-time-outline">
<path id="Vector" d="M25.4376 25.0521L29.8468 27.6575L28.6905 29.5383L23.1251 26.2083V18.5H25.4376V25.0521ZM35.4584 24.6667C35.4584 30.6329 30.633 35.4583 24.6667 35.4583C20.9976 35.4583 17.7755 33.6238 15.8176 30.8333H6.16675V18.5H1.54175L16.9584 4.625L27.7501 14.3221C32.2055 15.6479 35.4584 19.7796 35.4584 24.6667ZM14.3222 27.75C14.0447 26.7788 13.8751 25.7458 13.8751 24.6667C13.8751 19.3325 17.7292 14.9233 22.8167 14.0446L16.9584 8.77208L9.25008 15.7096V27.75H14.3222ZM32.3751 24.6667C32.3751 20.4117 28.9217 16.9583 24.6667 16.9583C20.4117 16.9583 16.9584 20.4117 16.9584 24.6667C16.9584 28.9217 20.4117 32.375 24.6667 32.375C28.9217 32.375 32.3751 28.9217 32.3751 24.6667Z" fill="black"/>
</g>
</svg>
