<svg width="20" height="20" viewBox="0 0 20 20" fill="none" xmlns="http://www.w3.org/2000/svg">
<path d="M17.5 14.5807V5.51724C17.5 3.99586 16.005 2.75862 14.1667 2.75862H10.69L12.845 0.975172L11.6667 0L7.5 3.44828L11.6667 6.89655L12.845 5.92138L10.69 4.13793H14.1667C15.0858 4.13793 15.8333 4.75724 15.8333 5.51724V14.5807C14.4 14.889 13.3333 15.96 13.3333 17.2414C13.3333 18.7628 14.8283 20 16.6667 20C18.505 20 20 18.7628 20 17.2414C20 15.96 18.9333 14.8897 17.5 14.5807ZM16.6667 18.6207C15.7475 18.6207 15 18.0021 15 17.2414C15 16.4807 15.7475 15.8621 16.6667 15.8621C17.5858 15.8621 18.3333 16.4814 18.3333 17.2414C18.3333 18.0014 17.5858 18.6207 16.6667 18.6207ZM0 3.44828C0 4.72966 1.06667 5.8 2.5 6.10897V14.5807C1.06667 14.889 0 15.96 0 17.2414C0 18.7628 1.495 20 3.33333 20C5.17167 20 6.66667 18.7628 6.66667 17.2414C6.66667 15.9593 5.6 14.8897 4.16667 14.5807V6.10897C5.6 5.80069 6.66667 4.72966 6.66667 3.44828C6.66667 1.9269 5.17167 0.689655 3.33333 0.689655C1.495 0.689655 0 1.9269 0 3.44828ZM5 17.2414C5 18.0021 4.2525 18.6207 3.33333 18.6207C2.41417 18.6207 1.66667 18.0021 1.66667 17.2414C1.66667 16.4807 2.41417 15.8621 3.33333 15.8621C4.2525 15.8621 5 16.4814 5 17.2414ZM5 3.44828C5 4.20897 4.2525 4.82759 3.33333 4.82759C2.41417 4.82759 1.66667 4.20897 1.66667 3.44828C1.66667 2.68759 2.41417 2.06897 3.33333 2.06897C4.2525 2.06897 5 2.68759 5 3.44828Z" fill="white"/>
</svg>
