<svg width="20" height="20" viewBox="0 0 20 20" fill="none" xmlns="http://www.w3.org/2000/svg">
<path d="M19.142 1.15961C19.634 1.20695 20 1.49095 20 1.8263V18.1735C20 18.5088 19.634 18.7928 19.142 18.8402L7.142 19.9935C6.99937 20.0069 6.8541 19.9995 6.7161 19.9721C6.57809 19.9446 6.45057 19.8976 6.34222 19.8344C6.23386 19.7711 6.14721 19.6931 6.08816 19.6055C6.02911 19.5179 5.99904 19.4229 6 19.3269V18.0001H1.052C0.773408 17.9996 0.506438 17.9257 0.30935 17.7944C0.112261 17.6631 0.00105516 17.4852 0 17.2995V2.70099C0 2.31431 0.473 1.99897 1.052 1.99897H6V0.672929C6 0.263582 6.539 -0.0510944 7.142 0.00690741L19.142 1.15961ZM9 10.6666C9.26522 10.6666 9.51957 10.5963 9.70711 10.4713C9.89464 10.3463 10 10.1767 10 9.99989C10 9.82308 9.89464 9.6535 9.70711 9.52847C9.51957 9.40345 9.26522 9.33321 9 9.33321C8.73478 9.33321 8.48043 9.40345 8.29289 9.52847C8.10536 9.6535 8 9.82308 8 9.99989C8 10.1767 8.10536 10.3463 8.29289 10.4713C8.48043 10.5963 8.73478 10.6666 9 10.6666ZM2 16.6668H6V3.33301H2V16.6668Z" fill="white"/>
</svg>
