<svg width="30" height="29" viewBox="0 0 30 29" fill="none"
    xmlns="http://www.w3.org/2000/svg">
    <g id="iconoir:trash-solid">
        <g id="Group">
            <path id="Vector" d="M25 10.7712L22.5062 24.3502C22.4045 24.9048 22.1019 25.4073 21.6515 25.7693C21.2011 26.1314 20.6318 26.3298 20.0437 26.3298H9.95625C9.36818 26.3298 8.79891 26.1314 8.34853 25.7693C7.89815 25.4073 7.59549 24.9048 7.49375 24.3502L5 10.7712" fill="#B91C1C"/>
            <path id="Vector_2" d="M26.25 7.18079H19.2188M19.2188 7.18079V4.78717C19.2188 4.15235 18.9554 3.54352 18.4865 3.09463C18.0177 2.64574 17.3818 2.39355 16.7188 2.39355H13.2812C12.6182 2.39355 11.9823 2.64574 11.5135 3.09463C11.0446 3.54352 10.7812 4.15235 10.7812 4.78717V7.18079M19.2188 7.18079H10.7812M3.75 7.18079H10.7812M25 10.7712L22.5062 24.3502C22.4045 24.9048 22.1019 25.4072 21.6515 25.7693C21.2011 26.1313 20.6318 26.3298 20.0437 26.3297H9.95625C9.36818 26.3298 8.79891 26.1313 8.34853 25.7693C7.89815 25.4072 7.59549 24.9048 7.49375 24.3502L5 10.7712H25Z" stroke="#B91C1C" stroke-width="1.5" stroke-linecap="round" stroke-linejoin="round"/>
        </g>
    </g>
</svg>
