<svg width="25" height="35" viewBox="0 0 25 35" fill="none" xmlns="http://www.w3.org/2000/svg">
<g clip-path="url(#clip0_249_54)">
<path d="M7.09125 0C7.32331 0 7.54587 0.129062 7.70997 0.358794C7.87406 0.588526 7.96625 0.90011 7.96625 1.225V3.51575H17.3625V1.24075C17.3625 0.91586 17.4547 0.604276 17.6188 0.374544C17.7829 0.144812 18.0054 0.01575 18.2375 0.01575C18.4696 0.01575 18.6921 0.144812 18.8562 0.374544C19.0203 0.604276 19.1125 0.91586 19.1125 1.24075V3.51575H22.5C23.1628 3.51575 23.7985 3.88426 24.2673 4.54026C24.7361 5.19626 24.9997 6.08605 25 7.014V31.5017C24.9997 32.4297 24.7361 33.3195 24.2673 33.9755C23.7985 34.6315 23.1628 35 22.5 35H2.5C1.83718 35 1.20148 34.6315 0.732675 33.9755C0.26387 33.3195 0.000331412 32.4297 0 31.5017L0 7.014C0.000331412 6.08605 0.26387 5.19626 0.732675 4.54026C1.20148 3.88426 1.83718 3.51575 2.5 3.51575H6.21625V1.22325C6.21658 0.898663 6.30891 0.587529 6.47297 0.358175C6.63703 0.128822 6.8594 -3.31211e-07 7.09125 0ZM1.75 13.5485V31.5017C1.75 31.6396 1.7694 31.7762 1.80709 31.9036C1.84478 32.031 1.90003 32.1467 1.96967 32.2442C2.03931 32.3417 2.12199 32.4191 2.21299 32.4718C2.30398 32.5246 2.40151 32.5518 2.5 32.5518H22.5C22.5985 32.5518 22.696 32.5246 22.787 32.4718C22.878 32.4191 22.9607 32.3417 23.0303 32.2442C23.1 32.1467 23.1552 32.031 23.1929 31.9036C23.2306 31.7762 23.25 31.6396 23.25 31.5017V13.573L1.75 13.5485ZM8.33375 25.5833V28.4987H6.25V25.5833H8.33375ZM13.5413 25.5833V28.4987H11.4587V25.5833H13.5413ZM18.75 25.5833V28.4987H16.6663V25.5833H18.75ZM8.33375 18.6235V21.539H6.25V18.6235H8.33375ZM13.5413 18.6235V21.539H11.4587V18.6235H13.5413ZM18.75 18.6235V21.539H16.6663V18.6235H18.75ZM6.21625 5.964H2.5C2.40151 5.964 2.30398 5.99116 2.21299 6.04393C2.12199 6.09669 2.03931 6.17404 1.96967 6.27154C1.90003 6.36904 1.84478 6.48479 1.80709 6.61218C1.7694 6.73957 1.75 6.87611 1.75 7.014V11.1003L23.25 11.1248V7.014C23.25 6.87611 23.2306 6.73957 23.1929 6.61218C23.1552 6.48479 23.1 6.36904 23.0303 6.27154C22.9607 6.17404 22.878 6.09669 22.787 6.04393C22.696 5.99116 22.5985 5.964 22.5 5.964H19.1125V7.58975C19.1125 7.91464 19.0203 8.22622 18.8562 8.45596C18.6921 8.68569 18.4696 8.81475 18.2375 8.81475C18.0054 8.81475 17.7829 8.68569 17.6188 8.45596C17.4547 8.22622 17.3625 7.91464 17.3625 7.58975V5.964H7.96625V7.574C7.96625 7.89889 7.87406 8.21047 7.70997 8.44021C7.54587 8.66994 7.32331 8.799 7.09125 8.799C6.85919 8.799 6.63663 8.66994 6.47253 8.44021C6.30844 8.21047 6.21625 7.89889 6.21625 7.574V5.964Z" fill="#5863F8"/>
</g>
<defs>
<clipPath id="clip0_249_54">
<rect width="25" height="35" fill="white"/>
</clipPath>
</defs>
</svg>
