<svg width="237" height="77" viewBox="0 0 237 77" fill="none" xmlns="http://www.w3.org/2000/svg">
<g id="Group 5">
<path id="Rectangle 2" d="M57 48H225V52H57V48Z" fill="#8B8C89"/>
<path id="KanShi" d="M67.685 39.395L67.46 33.905L85.325 15.5H90.455L76.64 30.08L74.12 32.87L67.685 39.395ZM63.725 47V15.5H68.225V47H63.725ZM86.045 47L73.13 31.97L76.145 28.64L91.31 47H86.045ZM109.672 47V41.96L109.447 41.015V32.42C109.447 30.59 108.907 29.18 107.827 28.19C106.777 27.17 105.187 26.66 103.057 26.66C101.647 26.66 100.267 26.9 98.9175 27.38C97.5675 27.83 96.4275 28.445 95.4975 29.225L93.6975 25.985C94.9275 24.995 96.3975 24.245 98.1075 23.735C99.8475 23.195 101.662 22.925 103.552 22.925C106.822 22.925 109.342 23.72 111.112 25.31C112.882 26.9 113.767 29.33 113.767 32.6V47H109.672ZM101.842 47.27C100.072 47.27 98.5125 46.97 97.1625 46.37C95.8425 45.77 94.8225 44.945 94.1025 43.895C93.3825 42.815 93.0225 41.6 93.0225 40.25C93.0225 38.96 93.3225 37.79 93.9225 36.74C94.5525 35.69 95.5575 34.85 96.9375 34.22C98.3475 33.59 100.237 33.275 102.607 33.275H110.167V36.38H102.787C100.627 36.38 99.1725 36.74 98.4225 37.46C97.6725 38.18 97.2975 39.05 97.2975 40.07C97.2975 41.24 97.7625 42.185 98.6925 42.905C99.6225 43.595 100.912 43.94 102.562 43.94C104.182 43.94 105.592 43.58 106.792 42.86C108.022 42.14 108.907 41.09 109.447 39.71L110.302 42.68C109.732 44.09 108.727 45.215 107.287 46.055C105.847 46.865 104.032 47.27 101.842 47.27ZM134.497 22.925C136.447 22.925 138.157 23.3 139.627 24.05C141.127 24.8 142.297 25.94 143.137 27.47C143.977 29 144.397 30.935 144.397 33.275V47H140.077V33.77C140.077 31.46 139.507 29.72 138.367 28.55C137.257 27.38 135.682 26.795 133.642 26.795C132.112 26.795 130.777 27.095 129.637 27.695C128.497 28.295 127.612 29.18 126.982 30.35C126.382 31.52 126.082 32.975 126.082 34.715V47H121.762V23.15H125.902V29.585L125.227 27.875C126.007 26.315 127.207 25.1 128.827 24.23C130.447 23.36 132.337 22.925 134.497 22.925ZM162.202 47.36C159.802 47.36 157.507 47 155.317 46.28C153.127 45.53 151.402 44.57 150.142 43.4L151.807 39.89C153.007 40.94 154.537 41.81 156.397 42.5C158.257 43.19 160.192 43.535 162.202 43.535C164.032 43.535 165.517 43.325 166.657 42.905C167.797 42.485 168.637 41.915 169.177 41.195C169.717 40.445 169.987 39.605 169.987 38.675C169.987 37.595 169.627 36.725 168.907 36.065C168.217 35.405 167.302 34.88 166.162 34.49C165.052 34.07 163.822 33.71 162.472 33.41C161.122 33.11 159.757 32.765 158.377 32.375C157.027 31.955 155.782 31.43 154.642 30.8C153.532 30.17 152.632 29.33 151.942 28.28C151.252 27.2 150.907 25.82 150.907 24.14C150.907 22.52 151.327 21.035 152.167 19.685C153.037 18.305 154.357 17.21 156.127 16.4C157.927 15.56 160.207 15.14 162.967 15.14C164.797 15.14 166.612 15.38 168.412 15.86C170.212 16.34 171.772 17.03 173.092 17.93L171.607 21.53C170.257 20.63 168.832 19.985 167.332 19.595C165.832 19.175 164.377 18.965 162.967 18.965C161.197 18.965 159.742 19.19 158.602 19.64C157.462 20.09 156.622 20.69 156.082 21.44C155.572 22.19 155.317 23.03 155.317 23.96C155.317 25.07 155.662 25.955 156.352 26.615C157.072 27.275 157.987 27.8 159.097 28.19C160.237 28.58 161.482 28.94 162.832 29.27C164.182 29.57 165.532 29.915 166.882 30.305C168.262 30.695 169.507 31.205 170.617 31.835C171.757 32.465 172.672 33.305 173.362 34.355C174.052 35.405 174.397 36.755 174.397 38.405C174.397 39.995 173.962 41.48 173.092 42.86C172.222 44.21 170.872 45.305 169.042 46.145C167.242 46.955 164.962 47.36 162.202 47.36ZM193.076 22.925C195.026 22.925 196.736 23.3 198.206 24.05C199.706 24.8 200.876 25.94 201.716 27.47C202.556 29 202.976 30.935 202.976 33.275V47H198.656V33.77C198.656 31.46 198.086 29.72 196.946 28.55C195.836 27.38 194.261 26.795 192.221 26.795C190.691 26.795 189.356 27.095 188.216 27.695C187.076 28.295 186.191 29.18 185.561 30.35C184.961 31.52 184.661 32.975 184.661 34.715V47H180.341V13.61H184.661V29.585L183.806 27.875C184.586 26.315 185.786 25.1 187.406 24.23C189.026 23.36 190.916 22.925 193.076 22.925ZM210.971 47V23.15H215.291V47H210.971ZM213.131 18.56C212.291 18.56 211.586 18.29 211.016 17.75C210.476 17.21 210.206 16.55 210.206 15.77C210.206 14.96 210.476 14.285 211.016 13.745C211.586 13.205 212.291 12.935 213.131 12.935C213.971 12.935 214.661 13.205 215.201 13.745C215.771 14.255 216.056 14.9 216.056 15.68C216.056 16.49 215.786 17.18 215.246 17.75C214.706 18.29 214.001 18.56 213.131 18.56Z" fill="#274C77"/>
<path id="&#227;&#130;&#173;&#227;&#131;&#163;&#227;&#131;&#179;&#227;&#130;&#183;" d="M64.692 54.516C64.632 54.216 64.56 53.952 64.476 53.7L65.544 53.52C65.568 53.736 65.616 54.084 65.664 54.348C65.736 54.876 67.056 61.464 67.224 62.256C67.308 62.592 67.404 63 67.524 63.348L66.42 63.552C66.36 63.144 66.324 62.772 66.24 62.424C66.12 61.668 64.836 55.14 64.692 54.516ZM61.308 56.256C61.608 56.232 61.932 56.208 62.316 56.172C63.396 56.052 67.536 55.392 68.676 55.164C69.024 55.104 69.336 55.032 69.54 54.972L69.732 55.98C69.552 55.992 69.192 56.052 68.868 56.1C67.632 56.292 63.54 56.94 62.484 57.12C62.16 57.18 61.872 57.24 61.524 57.324L61.308 56.256ZM61.272 59.712C61.56 59.7 62.016 59.652 62.328 59.604C63.612 59.436 68.076 58.704 69.516 58.44C69.972 58.356 70.32 58.272 70.572 58.2L70.776 59.208C70.524 59.232 70.14 59.304 69.696 59.376C68.1 59.616 63.768 60.324 62.556 60.54C62.088 60.624 61.752 60.696 61.488 60.768L61.272 59.712ZM76.62 55.656C76.644 55.872 76.716 56.124 76.788 56.436C77.064 57.432 78.372 62.184 78.624 63C78.696 63.228 78.804 63.6 78.888 63.816L77.856 64.092C77.832 63.816 77.772 63.504 77.688 63.216C77.436 62.352 76.152 57.516 75.876 56.628C75.792 56.34 75.696 56.1 75.588 55.908L76.62 55.656ZM82.38 57.312C81.876 58.32 80.64 60.012 79.812 60.816L78.972 60.384C79.716 59.748 80.628 58.632 81.036 57.924C80.508 58.02 74.892 59.148 74.04 59.328L73.8 58.416C74.136 58.38 74.436 58.344 74.796 58.272C75.396 58.176 80.628 57.192 81.312 57.036C81.468 57 81.648 56.94 81.768 56.88L82.38 57.312ZM86.724 54.216C87.564 54.78 89.112 56.028 89.772 56.688L89.028 57.456C88.416 56.832 86.928 55.536 86.028 54.948L86.724 54.216ZM85.692 62.256C87.78 61.944 89.34 61.212 90.48 60.504C92.34 59.34 93.792 57.564 94.488 56.076L95.064 57.108C94.248 58.596 92.856 60.228 91.044 61.368C89.832 62.124 88.32 62.868 86.316 63.24L85.692 62.256ZM99.6 53.784C100.308 54.18 101.688 55.104 102.216 55.488L101.652 56.304C101.076 55.86 99.768 54.996 99.072 54.6L99.6 53.784ZM97.8 62.364C99.12 62.136 100.608 61.656 101.832 60.972C103.824 59.832 105.408 58.26 106.368 56.568L106.956 57.564C105.912 59.172 104.256 60.72 102.336 61.848C101.124 62.556 99.468 63.108 98.364 63.336L97.8 62.364ZM97.8 56.484C98.508 56.868 99.912 57.732 100.428 58.104L99.876 58.944C99.288 58.512 97.992 57.684 97.26 57.3L97.8 56.484Z" fill="#274C77"/>
<g id="raphael:book">
<path id="Vector" d="M22.33 23.9008C23.9428 23.9008 25.5369 23.6464 26.8343 23.1041L26.8347 23.104L54.8568 11.3607C54.8574 11.3604 54.858 11.3602 54.8586 11.36C55.0668 11.2751 55.2884 11.2468 55.506 11.2757C55.702 11.3018 55.8932 11.374 56.0666 11.4902L56.1237 11.5338C56.3104 11.676 56.4673 11.8692 56.5773 12.0999C56.6873 12.3306 56.746 12.5897 56.7462 12.8546L56.7462 54.3259L56.7462 54.3284C56.7479 54.6596 56.6568 54.9799 56.4901 55.2457C56.3236 55.511 56.0923 55.7059 55.8332 55.8126L55.8304 55.8138L27.797 67.5606C27.7967 67.5606 27.7965 67.5607 27.7963 67.5608C26.0731 68.2768 24.2001 68.5494 22.3309 68.5497C18.3556 68.4971 14.6916 67.4325 12.5511 65.6087C11.8784 64.9985 11.24 64.194 11.1868 62.9431L11.1829 62.8506V62.8344V21.4806V21.4331L11.1744 21.3887C11.1744 21.3889 11.1744 21.3887 11.1743 21.3882L11.1742 21.388L11.174 21.3866C11.171 20.4839 11.6257 19.6516 12.1631 19.1444L12.1631 19.1445L12.167 19.1407C12.733 18.5949 13.4073 18.2159 14.239 17.886L14.2391 17.8861L14.2479 17.8824L42.2678 6.14394C42.2684 6.1437 42.269 6.14346 42.2696 6.14322C42.4779 6.05838 42.6994 6.03006 42.9171 6.05897C43.1346 6.08787 43.3464 6.17375 43.5342 6.3135C43.7196 6.45581 43.8754 6.64847 43.9847 6.87822C44.0945 7.109 44.1528 7.36799 44.1529 7.63262V11.4849L41.0475 10.1978L40.855 10.118L40.6628 10.1985L15.1837 20.8742C15.0159 20.9381 14.863 21.0029 14.7264 21.069L13.9459 21.4466L14.6637 21.933C15.1234 22.2445 15.6115 22.5043 16.1206 22.708C17.7557 23.4033 20.0833 23.9056 22.33 23.9008ZM22.33 23.9008C22.3303 23.9008 22.3305 23.9008 22.3308 23.9008L22.3297 23.4008V23.9008C22.3298 23.9008 22.3299 23.9008 22.33 23.9008ZM11.173 21.3791C11.173 21.3792 11.1731 21.3799 11.1732 21.3813L11.173 21.3791ZM12.8921 28.0565L11.9268 28.2396L11.9247 34.7605L11.9246 35.0394L12.1618 35.186C14.9865 36.9317 18.5707 37.7308 22.2971 37.7944L22.2971 37.7945H22.3056C23.748 37.7945 25.2188 37.639 26.6791 37.2821L27.0604 37.1889V36.7964V32.4892V31.8072L26.41 32.0123C25.0838 32.4307 23.7104 32.6367 22.332 32.6245C18.6732 32.5914 15.3135 31.5182 13.7205 30.1238C13.4771 29.8892 13.3319 29.7229 13.2391 29.5622C13.1528 29.4128 13.0999 29.2469 13.0861 28.9975C13.086 28.9972 13.086 28.9969 13.086 28.9966L13.0795 28.8709L13.0791 28.8624L13.0784 28.854C13.0549 28.58 12.9922 28.3109 12.8921 28.0565ZM22.2986 59.6648L22.3023 59.6511L22.3023 59.6625C23.7735 59.6659 25.2405 59.4934 26.6772 59.1481L27.0604 59.056V58.662V54.3596V53.6702L26.4051 53.8843C25.1391 54.298 23.754 54.4851 22.329 54.4852C18.6705 54.4613 15.3135 53.3839 13.7226 51.9941C13.4785 51.7586 13.334 51.5925 13.2414 51.4317C13.1553 51.2821 13.1019 51.115 13.086 50.8614C13.0859 50.8606 13.0859 50.8598 13.0858 50.859L13.0796 50.7365L13.0792 50.7306C13.0612 50.4468 12.997 50.1678 12.8887 49.9066L11.9268 50.0981V56.6263V56.9047L12.1636 57.0513C14.9865 58.7998 18.5709 59.5963 22.2986 59.6648Z" fill="#274C77" stroke="#8B8C89"/>
</g>
</g>
</svg>
